<svg width="32" height="31" viewBox="0 0 32 31" fill="none" xmlns="http://www.w3.org/2000/svg">
<path d="M11 28.875C11.7594 28.875 12.375 28.2594 12.375 27.5C12.375 26.7406 11.7594 26.125 11 26.125C10.2406 26.125 9.625 26.7406 9.625 27.5C9.625 28.2594 10.2406 28.875 11 28.875Z" stroke="white" stroke-width="2.75" stroke-linecap="round" stroke-linejoin="round"/>
<path d="M26.125 28.875C26.8844 28.875 27.5 28.2594 27.5 27.5C27.5 26.7406 26.8844 26.125 26.125 26.125C25.3656 26.125 24.75 26.7406 24.75 27.5C24.75 28.2594 25.3656 28.875 26.125 28.875Z" stroke="white" stroke-width="2.75" stroke-linecap="round" stroke-linejoin="round"/>
<path d="M0 0H5.5L9.185 18.4113C9.31074 19.0443 9.65512 19.6129 10.1579 20.0177C10.6606 20.4224 11.2897 20.6374 11.935 20.625H25.3C25.9453 20.6374 26.5744 20.4224 27.0771 20.0177C27.5799 19.6129 27.9243 19.0443 28.05 18.4113L30.25 6.875H6.875" stroke="white" stroke-width="2.75" stroke-linecap="round" stroke-linejoin="round"/>
</svg>
