<svg width="90" height="90" viewBox="0 0 105 105" fill="none" xmlns="http://www.w3.org/2000/svg">
<circle cx="52.5" cy="52.5" r="50.8173" stroke="white" stroke-width="3.36538"/>
<path d="M70.8974 73.197V68.5976C70.8974 66.158 69.9283 63.8183 68.2032 62.0932C66.4781 60.3681 64.1383 59.3989 61.6987 59.3989H43.3013C40.8616 59.3989 38.5219 60.3681 36.7968 62.0932C35.0717 63.8183 34.1025 66.158 34.1025 68.5976V73.197" stroke="white" stroke-width="4.59936" stroke-linecap="round" stroke-linejoin="round"/>
<path d="M52.4995 50.2007C57.5798 50.2007 61.6982 46.0823 61.6982 41.0019C61.6982 35.9216 57.5798 31.8032 52.4995 31.8032C47.4192 31.8032 43.3008 35.9216 43.3008 41.0019C43.3008 46.0823 47.4192 50.2007 52.4995 50.2007Z" stroke="white" stroke-width="4.59936" stroke-linecap="round" stroke-linejoin="round"/>
</svg>
