<?xml version="1.0" standalone="no"?>
<!DOCTYPE svg PUBLIC "-//W3C//DTD SVG 20010904//EN"
 "http://www.w3.org/TR/2001/REC-SVG-20010904/DTD/svg10.dtd">
<svg version="1.0" xmlns="http://www.w3.org/2000/svg"
 width="128.000000pt" height="128.000000pt" viewBox="0 0 128.000000 128.000000"
 preserveAspectRatio="xMidYMid meet">

<g transform="translate(0.000000,128.000000) scale(0.100000,-0.100000)"
fill="white" stroke="none">
<path d="M22 1214 c-26 -18 -28 -46 -6 -68 11 -11 35 -16 84 -16 l68 0 10 -42
c6 -24 41 -169 77 -323 37 -154 73 -290 81 -302 l14 -23 386 0 c230 0 393 4
403 10 14 7 34 71 82 264 62 250 63 255 45 275 -19 21 -27 21 -496 21 l-477 0
-18 83 c-30 137 -29 137 -155 137 -52 0 -82 -5 -98 -16z m1144 -321 c-3 -10
-24 -93 -47 -186 l-42 -167 -335 2 -336 3 -37 155 c-21 85 -40 167 -43 183
l-5 27 425 0 c400 0 425 -1 420 -17z"/>
<path d="M361 353 c-144 -76 -89 -295 74 -295 118 0 190 120 139 228 -35 73
-140 106 -213 67z m114 -98 c30 -29 31 -45 4 -79 -25 -31 -61 -34 -89 -6 -28
28 -25 64 6 89 34 27 50 26 79 -4z"/>
<path d="M933 351 c-82 -52 -102 -159 -42 -235 62 -79 191 -77 252 6 46 62 28
174 -36 220 -44 31 -131 36 -174 9z m115 -88 c31 -28 35 -56 11 -86 -25 -32
-61 -35 -89 -7 -28 28 -25 64 6 89 32 26 46 26 72 4z"/>
</g>
</svg>
