<svg width="38" height="38" viewBox="0 0 47 47" fill="none" xmlns="http://www.w3.org/2000/svg">
<path d="M1.95831 7.83301V19.583H13.7083" stroke="white" stroke-width="3.91667" stroke-linecap="round" stroke-linejoin="round"/>
<path d="M45.0417 39.167V27.417H33.2917" stroke="white" stroke-width="3.91667" stroke-linecap="round" stroke-linejoin="round"/>
<path d="M40.1262 17.6243C39.133 14.8176 37.445 12.3082 35.2197 10.3303C32.9944 8.35241 30.3043 6.97048 27.4004 6.31345C24.4966 5.65641 21.4736 5.74569 18.6136 6.57296C15.7535 7.40022 13.1497 8.9385 11.045 11.0443L1.95831 19.5826M45.0416 27.4159L35.955 35.9543C33.8503 38.06 31.2464 39.5983 28.3864 40.4256C25.5264 41.2529 22.5034 41.3421 19.5995 40.6851C16.6957 40.0281 14.0056 38.6461 11.7803 36.6682C9.55495 34.6904 7.86693 32.181 6.87373 29.3743" stroke="white" stroke-width="3.91667" stroke-linecap="round" stroke-linejoin="round"/>
</svg>
